<svg width="199" height="199" viewBox="0 0 199 199" fill="none" xmlns="http://www.w3.org/2000/svg">
<ellipse cx="99.5" cy="99.5002" rx="93.2813" ry="93.2814" fill="white"/>
<mask id="path-2-inside-1_6673_111648" fill="white">
<path fill-rule="evenodd" clip-rule="evenodd" d="M99.5 199C154.452 199 199 154.453 199 99.5002C199 44.5478 154.452 0 99.5 0C44.5477 0 0 44.5478 0 99.5002C0 154.453 44.5477 199 99.5 199ZM99.3753 171.139C138.872 171.139 170.891 139.121 170.891 99.6235C170.891 60.1264 138.872 28.1077 99.3753 28.1077C59.8783 28.1077 27.8596 60.1264 27.8596 99.6235C27.8596 139.121 59.8783 171.139 99.3753 171.139Z"/>
</mask>
<path fill-rule="evenodd" clip-rule="evenodd" d="M99.5 199C154.452 199 199 154.453 199 99.5002C199 44.5478 154.452 0 99.5 0C44.5477 0 0 44.5478 0 99.5002C0 154.453 44.5477 199 99.5 199ZM99.3753 171.139C138.872 171.139 170.891 139.121 170.891 99.6235C170.891 60.1264 138.872 28.1077 99.3753 28.1077C59.8783 28.1077 27.8596 60.1264 27.8596 99.6235C27.8596 139.121 59.8783 171.139 99.3753 171.139Z" fill="#4BB3FF"/>
<path d="M198.751 99.5002C198.751 154.315 154.315 198.752 99.5 198.752V199.249C154.59 199.249 199.249 154.59 199.249 99.5002H198.751ZM99.5 0.24875C154.315 0.24875 198.751 44.6851 198.751 99.5002H199.249C199.249 44.4104 154.59 -0.24875 99.5 -0.24875V0.24875ZM0.24875 99.5002C0.24875 44.6851 44.6851 0.24875 99.5 0.24875V-0.24875C44.4103 -0.24875 -0.24875 44.4104 -0.24875 99.5002H0.24875ZM99.5 198.752C44.6851 198.752 0.24875 154.315 0.24875 99.5002H-0.24875C-0.24875 154.59 44.4103 199.249 99.5 199.249V198.752ZM170.642 99.6235C170.642 138.983 138.735 170.89 99.3753 170.89V171.388C139.01 171.388 171.14 139.258 171.14 99.6235H170.642ZM99.3753 28.3564C138.735 28.3564 170.642 60.2638 170.642 99.6235H171.14C171.14 59.989 139.01 27.8589 99.3753 27.8589V28.3564ZM28.1084 99.6235C28.1084 60.2638 60.0156 28.3564 99.3753 28.3564V27.8589C59.7409 27.8589 27.6109 59.989 27.6109 99.6235H28.1084ZM99.3753 170.89C60.0156 170.89 28.1084 138.983 28.1084 99.6235H27.6109C27.6109 139.258 59.7409 171.388 99.3753 171.388V170.89Z" fill="black" mask="url(#path-2-inside-1_6673_111648)"/>
<mask id="path-4-inside-2_6673_111648" fill="white">
<path fill-rule="evenodd" clip-rule="evenodd" d="M99.375 196.016C152.61 196.016 195.766 152.86 195.766 99.6247C195.766 46.3895 152.61 3.23389 99.375 3.23389C46.1399 3.23389 2.98438 46.3895 2.98438 99.6247C2.98438 152.86 46.1399 196.016 99.375 196.016ZM99.4996 192.782C151.017 192.782 192.781 151.019 192.781 99.5009C192.781 47.983 151.017 6.21944 99.4996 6.21944C47.9818 6.21944 6.21838 47.983 6.21838 99.5009C6.21838 151.019 47.9818 192.782 99.4996 192.782Z"/>
</mask>
<path fill-rule="evenodd" clip-rule="evenodd" d="M99.375 196.016C152.61 196.016 195.766 152.86 195.766 99.6247C195.766 46.3895 152.61 3.23389 99.375 3.23389C46.1399 3.23389 2.98438 46.3895 2.98438 99.6247C2.98438 152.86 46.1399 196.016 99.375 196.016ZM99.4996 192.782C151.017 192.782 192.781 151.019 192.781 99.5009C192.781 47.983 151.017 6.21944 99.4996 6.21944C47.9818 6.21944 6.21838 47.983 6.21838 99.5009C6.21838 151.019 47.9818 192.782 99.4996 192.782Z" fill="white"/>
<path d="M195.517 99.6247C195.517 152.722 152.473 195.767 99.375 195.767V196.264C152.747 196.264 196.014 152.997 196.014 99.6247H195.517ZM99.375 3.48264C152.473 3.48264 195.517 46.5269 195.517 99.6247H196.014C196.014 46.2521 152.747 2.98514 99.375 2.98514V3.48264ZM3.23313 99.6247C3.23313 46.5269 46.2773 3.48264 99.375 3.48264V2.98514C46.0025 2.98514 2.73562 46.2521 2.73562 99.6247H3.23313ZM99.375 195.767C46.2773 195.767 3.23313 152.722 3.23313 99.6247H2.73562C2.73562 152.997 46.0025 196.264 99.375 196.264V195.767ZM192.532 99.5009C192.532 150.881 150.88 192.534 99.4996 192.534V193.031C151.155 193.031 193.03 151.156 193.03 99.5009H192.532ZM99.4996 6.46819C150.88 6.46819 192.532 48.1203 192.532 99.5009H193.03C193.03 47.8456 151.155 5.97069 99.4996 5.97069V6.46819ZM6.46713 99.5009C6.46713 48.1203 48.1192 6.46819 99.4996 6.46819V5.97069C47.8444 5.97069 5.96963 47.8456 5.96963 99.5009H6.46713ZM99.4996 192.534C48.1192 192.534 6.46713 150.881 6.46713 99.5009H5.96963C5.96963 151.156 47.8444 193.031 99.4996 193.031V192.534Z" fill="black" mask="url(#path-4-inside-2_6673_111648)"/>
<mask id="path-6-inside-3_6673_111648" fill="white">
<path fill-rule="evenodd" clip-rule="evenodd" d="M99.4996 187.808C148.27 187.808 187.806 148.272 187.806 99.5012C187.806 50.731 148.27 11.1948 99.4996 11.1948C50.7294 11.1948 11.1934 50.731 11.1934 99.5012C11.1934 148.272 50.7294 187.808 99.4996 187.808ZM99.6138 184.847C146.811 184.847 185.071 146.586 185.071 99.3887C185.071 52.1917 146.811 13.9309 99.6138 13.9309C52.4168 13.9309 14.1561 52.1917 14.1561 99.3887C14.1561 146.586 52.4168 184.847 99.6138 184.847Z"/>
</mask>
<path fill-rule="evenodd" clip-rule="evenodd" d="M99.4996 187.808C148.27 187.808 187.806 148.272 187.806 99.5012C187.806 50.731 148.27 11.1948 99.4996 11.1948C50.7294 11.1948 11.1934 50.731 11.1934 99.5012C11.1934 148.272 50.7294 187.808 99.4996 187.808ZM99.6138 184.847C146.811 184.847 185.071 146.586 185.071 99.3887C185.071 52.1917 146.811 13.9309 99.6138 13.9309C52.4168 13.9309 14.1561 52.1917 14.1561 99.3887C14.1561 146.586 52.4168 184.847 99.6138 184.847Z" fill="white"/>
<path d="M187.557 99.5012C187.557 148.134 148.132 187.559 99.4996 187.559V188.056C148.407 188.056 188.055 148.409 188.055 99.5012H187.557ZM99.4996 11.4436C148.132 11.4436 187.557 50.8683 187.557 99.5012H188.055C188.055 50.5936 148.407 10.9461 99.4996 10.9461V11.4436ZM11.4421 99.5012C11.4421 50.8683 50.8668 11.4436 99.4996 11.4436V10.9461C50.592 10.9461 10.9446 50.5936 10.9446 99.5012H11.4421ZM99.4996 187.559C50.8668 187.559 11.4421 148.134 11.4421 99.5012H10.9446C10.9446 148.409 50.592 188.056 99.4996 188.056V187.559ZM184.823 99.3887C184.823 146.448 146.673 184.598 99.6138 184.598V185.095C146.948 185.095 185.32 146.723 185.32 99.3887H184.823ZM99.6138 14.1796C146.673 14.1796 184.823 52.329 184.823 99.3887H185.32C185.32 52.0543 146.948 13.6821 99.6138 13.6821V14.1796ZM14.4049 99.3887C14.4049 52.329 52.5542 14.1796 99.6138 14.1796V13.6821C52.2795 13.6821 13.9074 52.0543 13.9074 99.3887H14.4049ZM99.6138 184.598C52.5542 184.598 14.4049 146.448 14.4049 99.3887H13.9074C13.9074 146.723 52.2795 185.095 99.6138 185.095V184.598Z" fill="black" mask="url(#path-6-inside-3_6673_111648)"/>
<mask id="mask0_6673_111648" style="mask-type:alpha" maskUnits="userSpaceOnUse" x="27" y="28" width="144" height="144">
<ellipse cx="99.375" cy="99.6237" rx="71.5156" ry="71.5158" fill="white"/>
</mask>
<g mask="url(#mask0_6673_111648)">
<rect x="80.7367" y="39.1068" width="55.8555" height="12.3142" transform="rotate(8.57348 80.7367 39.1068)" fill="white" stroke="black" stroke-width="0.373125"/>
<rect x="63.2685" y="83.2206" width="61.0915" height="117.227" transform="rotate(8.57348 63.2685 83.2206)" fill="#4BB3FF" stroke="black" stroke-width="0.24875"/>
<path d="M63.3516 82.9808L78.7589 51.5776L134.124 59.9246L123.734 92.0842L63.3516 82.9808Z" fill="#4BB3FF" stroke="black" stroke-width="0.24875"/>
<path d="M106.45 208.281L123.937 92.2871L139.542 79.0091L119.75 210.286L106.45 208.281Z" fill="#4BB3FF" stroke="black" stroke-width="0.24875"/>
<path d="M139.565 78.624L130.852 81.9752L134.322 60.3959L139.565 78.624Z" fill="#348CCC" stroke="black" stroke-width="0.24875"/>
<path d="M130.604 82.0497L124.204 91.4379L133.892 61.5091L130.604 82.0497Z" fill="#348CCC" stroke="black" stroke-width="0.24875"/>
<path d="M124.416 91.5618L130.794 82.205L139.1 79.0665L124.416 91.5618Z" fill="#2FA2F5" stroke="black" stroke-width="0.24875"/>
<mask id="path-16-inside-4_6673_111648" fill="white">
<path fill-rule="evenodd" clip-rule="evenodd" d="M98.2472 74.9412C104.648 74.8063 109.921 70.5014 110.023 65.3259C110.036 64.7021 109.972 64.0941 109.84 63.5075C110.514 65.5847 110.645 68.0807 110.482 70.9631C110.255 74.9682 105.657 80.334 97.9351 80.1202C97.7053 80.0856 97.4582 80.0185 97.1972 79.9219C96.9293 79.9379 96.6498 79.9252 96.358 79.8812C88.9784 78.7687 86.4601 72.635 86.8221 66.3257C86.8273 66.236 86.8337 66.1468 86.8414 66.058C86.9009 71.1175 91.9467 75.074 98.2472 74.9412Z"/>
</mask>
<path fill-rule="evenodd" clip-rule="evenodd" d="M98.2472 74.9412C104.648 74.8063 109.921 70.5014 110.023 65.3259C110.036 64.7021 109.972 64.0941 109.84 63.5075C110.514 65.5847 110.645 68.0807 110.482 70.9631C110.255 74.9682 105.657 80.334 97.9351 80.1202C97.7053 80.0856 97.4582 80.0185 97.1972 79.9219C96.9293 79.9379 96.6498 79.9252 96.358 79.8812C88.9784 78.7687 86.4601 72.635 86.8221 66.3257C86.8273 66.236 86.8337 66.1468 86.8414 66.058C86.9009 71.1175 91.9467 75.074 98.2472 74.9412Z" fill="#C2C2C2"/>
<path d="M110.023 65.3259L110.272 65.3308L110.272 65.3308L110.023 65.3259ZM98.2472 74.9412L98.2419 74.6925L98.2472 74.9412ZM109.84 63.5075L110.077 63.4308L109.598 63.5621L109.84 63.5075ZM110.482 70.9631L110.73 70.9772L110.482 70.9631ZM97.9351 80.1202L97.898 80.3662L97.913 80.3685L97.9282 80.3689L97.9351 80.1202ZM97.1972 79.9219L97.2835 79.6886L97.2345 79.6705L97.1823 79.6736L97.1972 79.9219ZM86.8221 66.3257L86.5738 66.3114L86.8221 66.3257ZM86.8414 66.058L87.0901 66.0551L86.5936 66.0365L86.8414 66.058ZM109.775 65.3209C109.676 70.319 104.559 74.5594 98.2419 74.6925L98.2524 75.1899C104.738 75.0532 110.166 70.6837 110.272 65.3308L109.775 65.3209ZM109.598 63.5621C109.725 64.1293 109.787 64.7173 109.775 65.3209L110.272 65.3308C110.285 64.6869 110.22 64.0589 110.083 63.4528L109.598 63.5621ZM110.73 70.9772C110.894 68.0835 110.764 65.5514 110.077 63.4308L109.604 63.5841C110.263 65.618 110.396 68.0778 110.233 70.949L110.73 70.9772ZM97.9282 80.3689C105.766 80.5858 110.494 75.1349 110.73 70.9772L110.233 70.949C110.015 74.8015 105.548 80.0821 97.942 79.8716L97.9282 80.3689ZM97.1108 80.1552C97.3842 80.2564 97.6479 80.3285 97.898 80.3662L97.9722 79.8743C97.7627 79.8427 97.5323 79.7807 97.2835 79.6886L97.1108 80.1552ZM96.3209 80.1272C96.629 80.1736 96.9259 80.1873 97.212 80.1702L97.1823 79.6736C96.9327 79.6885 96.6707 79.6768 96.3951 79.6353L96.3209 80.1272ZM86.5738 66.3114C86.3909 69.4997 86.9339 72.6652 88.4748 75.1821C90.0211 77.7078 92.5607 79.5603 96.3209 80.1272L96.3951 79.6353C92.7757 79.0896 90.3664 77.319 88.8991 74.9223C87.4265 72.517 86.8914 69.461 87.0705 66.3399L86.5738 66.3114ZM86.5936 66.0365C86.5857 66.1277 86.5791 66.2194 86.5738 66.3114L87.0705 66.3399C87.0755 66.2527 87.0817 66.1659 87.0892 66.0795L86.5936 66.0365ZM98.2419 74.6925C92.0271 74.8235 87.1475 70.9289 87.0901 66.0551L86.5927 66.0609C86.6544 71.306 91.8663 75.3245 98.2524 75.1899L98.2419 74.6925Z" fill="black" mask="url(#path-16-inside-4_6673_111648)"/>
<path d="M109.863 65.56C109.762 70.6434 104.572 74.9143 98.2137 75.0483C91.8551 75.1823 86.8301 71.1267 86.9308 66.0433C87.0316 60.9598 92.2217 56.6889 98.5802 56.5549C104.939 56.4209 109.964 60.4766 109.863 65.56Z" fill="white" stroke="black" stroke-width="0.24875"/>
<path d="M60.063 130.28L62.2694 115.645L65.6774 116.158L70.2402 127.024L68.4421 126.753L75.8384 117.69L79.2463 118.204L77.0817 132.846L73.2766 132.272L74.5681 123.422L75.2162 123.519L69.6889 130.256L67.849 129.978L64.4279 121.893L65.2224 122.013L63.8891 130.857L60.063 130.28ZM80.0109 133.287L82.2173 118.652L86.357 119.276L84.1506 133.911L80.0109 133.287ZM87.0958 134.355L89.3022 119.72L93.4419 120.344L91.7303 131.697L98.7134 132.75L98.2186 136.032L87.0958 134.355ZM104.046 133.596L104.516 128.92L111.827 123.116L116.385 123.803L109.088 129.652L106.426 131.71L104.046 133.596ZM99.8567 136.279L102.063 121.644L106.161 122.262L103.955 136.897L99.8567 136.279ZM109.683 137.761L105.827 131L108.959 128.521L114.492 138.486L109.683 137.761Z" fill="white"/>
<path d="M95.7778 139.21C95.9353 139.234 96.0708 139.286 96.1845 139.366C96.3007 139.446 96.3848 139.556 96.4369 139.694C96.4893 139.83 96.5005 139.998 96.4704 140.197L96.3002 141.326L95.839 141.257L96.0003 140.187C96.0267 140.012 96.0045 139.876 95.9339 139.777C95.8657 139.679 95.7578 139.618 95.6102 139.596C95.502 139.58 95.4027 139.587 95.3124 139.619C95.2221 139.651 95.1469 139.707 95.0868 139.789C95.0296 139.868 94.9909 139.974 94.9709 140.107L94.8207 141.103L94.3595 141.034L94.6566 139.064L95.0956 139.13L95.0155 139.661L94.9625 139.487C95.0503 139.372 95.1644 139.291 95.3048 139.244C95.448 139.196 95.6057 139.184 95.7778 139.21ZM97.7705 141.575C97.5688 141.544 97.3957 141.474 97.2513 141.364C97.1072 141.252 97.0012 141.113 96.9332 140.946C96.8651 140.78 96.8458 140.6 96.8751 140.406C96.9047 140.209 96.9764 140.042 97.09 139.906C97.204 139.767 97.3462 139.667 97.5166 139.604C97.687 139.542 97.8731 139.526 98.0748 139.556C98.2789 139.587 98.4532 139.657 98.5977 139.767C98.7446 139.877 98.851 140.014 98.9169 140.178C98.9853 140.341 99.0045 140.523 98.9744 140.722C98.9451 140.916 98.8735 141.083 98.7595 141.222C98.6479 141.361 98.5056 141.463 98.3323 141.527C98.1619 141.589 97.9746 141.605 97.7705 141.575ZM97.83 141.18C97.9432 141.197 98.0477 141.187 98.1437 141.152C98.2396 141.116 98.3193 141.055 98.3826 140.969C98.4483 140.883 98.4906 140.777 98.5095 140.652C98.5288 140.524 98.5195 140.411 98.4816 140.312C98.4465 140.211 98.3883 140.129 98.3072 140.067C98.2261 140.004 98.1302 139.965 98.0195 139.948C97.9063 139.931 97.8018 139.94 97.7058 139.976C97.6123 140.012 97.5327 140.073 97.4669 140.159C97.4016 140.242 97.3592 140.348 97.34 140.476C97.321 140.601 97.3304 140.714 97.3679 140.816C97.4055 140.917 97.4636 140.999 97.5423 141.061C97.6234 141.123 97.7193 141.163 97.83 141.18ZM100.685 139.95C100.843 139.974 100.978 140.025 101.092 140.106C101.208 140.186 101.292 140.295 101.344 140.434C101.397 140.57 101.408 140.738 101.378 140.937L101.208 142.066L100.746 141.997L100.908 140.927C100.934 140.752 100.912 140.615 100.841 140.517C100.773 140.418 100.665 140.358 100.518 140.336C100.409 140.32 100.31 140.327 100.22 140.359C100.13 140.391 100.054 140.447 99.9942 140.529C99.937 140.608 99.8983 140.714 99.8783 140.847L99.7281 141.843L99.2669 141.774L99.564 139.803L100.003 139.87L99.9229 140.401L99.8699 140.227C99.9577 140.112 100.072 140.031 100.212 139.984C100.355 139.935 100.513 139.924 100.685 139.95ZM103.336 142.387L102.788 140.29L103.268 140.362L103.733 142.209L103.497 142.174L104.511 140.549L104.954 140.616L103.812 142.459L103.336 142.387ZM105.814 142.787C105.595 142.754 105.409 142.682 105.257 142.571C105.108 142.458 105 142.319 104.932 142.152C104.866 141.986 104.848 141.806 104.878 141.612C104.907 141.415 104.976 141.248 105.085 141.111C105.197 140.972 105.335 140.871 105.501 140.808C105.669 140.745 105.851 140.729 106.048 140.758C106.24 140.787 106.404 140.855 106.542 140.961C106.679 141.067 106.779 141.203 106.842 141.369C106.906 141.534 106.921 141.72 106.89 141.927C106.887 141.947 106.883 141.968 106.877 141.993C106.873 142.017 106.868 142.04 106.862 142.062L105.221 141.815L105.267 141.508L106.665 141.719L106.47 141.788C106.489 141.675 106.481 141.572 106.445 141.479C106.409 141.385 106.351 141.307 106.272 141.245C106.196 141.183 106.103 141.144 105.992 141.127C105.879 141.11 105.776 141.12 105.682 141.156C105.591 141.193 105.514 141.251 105.452 141.333C105.392 141.412 105.353 141.51 105.335 141.628L105.324 141.702C105.307 141.82 105.318 141.929 105.358 142.028C105.399 142.127 105.464 142.209 105.555 142.273C105.646 142.337 105.756 142.378 105.884 142.398C105.994 142.414 106.096 142.412 106.19 142.391C106.284 142.37 106.371 142.328 106.451 142.264L106.655 142.586C106.551 142.676 106.427 142.739 106.283 142.775C106.142 142.809 105.986 142.813 105.814 142.787ZM107.968 143.844C107.786 143.816 107.611 143.765 107.444 143.689C107.279 143.617 107.148 143.527 107.051 143.419L107.309 143.103C107.385 143.187 107.485 143.26 107.609 143.322C107.735 143.386 107.865 143.429 108.001 143.449C108.217 143.482 108.383 143.455 108.499 143.369C108.615 143.286 108.688 143.145 108.718 142.946L108.771 142.595L108.875 142.154L108.928 141.706L109 141.226L109.439 141.292L109.187 142.964C109.133 143.32 109.003 143.569 108.796 143.708C108.588 143.851 108.312 143.896 107.968 143.844ZM108.034 143.005C107.847 142.977 107.683 142.912 107.542 142.81C107.405 142.706 107.302 142.576 107.235 142.42C107.17 142.265 107.153 142.091 107.182 141.899C107.21 141.71 107.278 141.55 107.386 141.42C107.496 141.291 107.632 141.198 107.794 141.142C107.958 141.087 108.134 141.073 108.321 141.101C108.488 141.126 108.633 141.182 108.756 141.268C108.879 141.355 108.969 141.474 109.026 141.626C109.086 141.779 109.1 141.964 109.067 142.183C109.034 142.402 108.966 142.577 108.863 142.707C108.764 142.836 108.642 142.924 108.499 142.973C108.356 143.019 108.201 143.03 108.034 143.005ZM108.163 142.624C108.278 142.642 108.385 142.634 108.483 142.601C108.582 142.565 108.662 142.51 108.724 142.433C108.788 142.355 108.829 142.261 108.846 142.15C108.862 142.039 108.851 141.938 108.812 141.847C108.776 141.753 108.716 141.678 108.631 141.62C108.547 141.559 108.447 141.52 108.332 141.503C108.216 141.485 108.108 141.493 108.008 141.526C107.91 141.556 107.829 141.61 107.764 141.689C107.702 141.765 107.663 141.858 107.646 141.969C107.63 142.08 107.64 142.182 107.676 142.275C107.715 142.367 107.776 142.444 107.86 142.507C107.946 142.568 108.047 142.607 108.163 142.624ZM110.962 143.537L111.022 143.138L111.009 143.05L111.114 142.352C111.135 142.217 111.11 142.106 111.04 142.02C110.97 141.932 110.853 141.875 110.688 141.85C110.577 141.834 110.465 141.834 110.352 141.853C110.241 141.871 110.144 141.905 110.061 141.956L109.931 141.593C110.049 141.528 110.183 141.486 110.334 141.469C110.488 141.449 110.644 141.451 110.801 141.475C111.087 141.518 111.296 141.62 111.431 141.781C111.568 141.94 111.615 142.162 111.572 142.448L111.398 143.603L110.962 143.537ZM110.338 143.469C110.191 143.447 110.065 143.403 109.962 143.337C109.859 143.269 109.784 143.186 109.736 143.088C109.69 142.988 109.676 142.881 109.693 142.768C109.71 142.658 109.751 142.562 109.816 142.481C109.883 142.401 109.981 142.344 110.109 142.31C110.238 142.277 110.401 142.275 110.601 142.305L111.173 142.391L111.126 142.698L110.588 142.616C110.43 142.593 110.321 142.602 110.259 142.646C110.197 142.687 110.161 142.744 110.15 142.818C110.137 142.902 110.16 142.973 110.219 143.032C110.278 143.092 110.367 143.13 110.485 143.148C110.598 143.165 110.703 143.154 110.799 143.116C110.898 143.078 110.975 143.012 111.029 142.917L111.065 143.205C111.003 143.314 110.91 143.392 110.785 143.438C110.662 143.485 110.513 143.496 110.338 143.469ZM113.408 141.868C113.565 141.892 113.701 141.944 113.814 142.024C113.931 142.104 114.015 142.214 114.067 142.352C114.119 142.488 114.13 142.656 114.1 142.855L113.93 143.984L113.469 143.915L113.63 142.845C113.657 142.67 113.634 142.534 113.564 142.435C113.496 142.337 113.388 142.276 113.24 142.254C113.132 142.238 113.033 142.245 112.942 142.277C112.852 142.309 112.777 142.365 112.717 142.447C112.659 142.526 112.621 142.632 112.601 142.765L112.451 143.761L111.989 143.692L112.286 141.722L112.726 141.788L112.645 142.319L112.592 142.145C112.68 142.03 112.794 141.949 112.935 141.902C113.078 141.853 113.236 141.842 113.408 141.868Z" fill="white"/>
</g>
</svg>
