<svg width="449" height="152" viewBox="0 0 449 152" fill="none" xmlns="http://www.w3.org/2000/svg">
<path d="M56.1764 41.6818C52.1174 41.6818 48.1496 40.4782 44.7747 38.2231C41.3998 35.9681 38.7693 32.7629 37.216 29.0129C35.6627 25.2629 35.2563 21.1365 36.0482 17.1555C36.8401 13.1745 38.7946 9.51777 41.6648 6.64764C44.5349 3.77751 48.1917 1.82293 52.1726 1.03106C56.1536 0.239195 60.28 0.645615 64.03 2.19892C67.78 3.75222 70.9852 6.38264 73.2403 9.75756C75.4953 13.1325 76.6989 17.1003 76.6989 21.1593C76.6943 26.6007 74.5306 31.818 70.6829 35.6657C66.8351 39.5134 61.6179 41.6771 56.1764 41.6818V41.6818Z" fill="#FFC700"/>
<path d="M20.5225 77.5119C31.8568 77.5119 41.0451 68.3236 41.0451 56.9893C41.0451 45.6551 31.8568 36.4668 20.5225 36.4668C9.18826 36.4668 0 45.6551 0 56.9893C0 68.3236 9.18826 77.5119 20.5225 77.5119Z" fill="#FFC700"/>
<path d="M56.1764 115.04C67.5107 115.04 76.6989 105.851 76.6989 94.5172C76.6989 83.1829 67.5107 73.9946 56.1764 73.9946C44.8421 73.9946 35.6538 83.1829 35.6538 94.5172C35.6538 105.851 44.8421 115.04 56.1764 115.04Z" fill="#3A7DFF"/>
<path d="M92.2013 151.065C103.536 151.065 112.724 141.876 112.724 130.542C112.724 119.208 103.536 110.02 92.2013 110.02C80.867 110.02 71.6788 119.208 71.6788 130.542C71.6788 141.876 80.867 151.065 92.2013 151.065Z" fill="#3A7DFF"/>
<path d="M148.879 92.6014C150.101 93.8519 151.57 94.8334 153.192 95.4832C154.815 96.133 156.554 96.4367 158.3 96.375C159.978 96.4362 161.65 96.1334 163.2 95.4875C164.75 94.8416 166.143 93.8678 167.282 92.6329C169.686 89.8626 170.925 86.2668 170.737 82.6013V43.7329H187.978V82.6013C188.07 87.8494 186.792 93.0307 184.272 97.6329C181.886 101.915 178.277 105.386 173.908 107.602C169.031 110.013 163.644 111.21 158.206 111.092C152.707 111.212 147.26 110.015 142.316 107.602C137.896 105.39 134.226 101.923 131.764 97.6329C129.215 93.0416 127.936 87.8527 128.058 82.6013V43.7329H145.299V82.6013C145.202 84.4228 145.468 86.2456 146.083 87.9627C146.697 89.6798 147.648 91.2569 148.879 92.6014V92.6014Z" fill="black"/>
<path d="M290.01 43.7329H307.722L285.393 109.771H267.681L255.12 64.7709L242.558 109.771H224.72L202.486 43.7329H221.046L234.048 92.0353L247.08 43.7329H263.944L277.134 92.0353L290.01 43.7329Z" fill="black"/>
<path d="M362.46 59.7079C359.787 58.1846 356.773 57.3625 353.698 57.318C350.49 57.2783 347.335 58.1389 344.591 59.8023C341.919 61.4933 339.75 63.8718 338.31 66.6892C336.761 69.7104 335.954 73.0575 335.954 76.4534C335.954 79.8494 336.761 83.1965 338.31 86.2177C339.75 89.0351 341.919 91.4135 344.591 93.1046C347.333 94.7774 350.487 95.6488 353.698 95.6203C356.642 95.5619 359.538 94.8532 362.177 93.5448C365.137 92.1555 367.819 90.2373 370.091 87.8844L380.172 98.7335C376.537 102.536 372.195 105.592 367.39 107.727C362.296 110.128 356.703 111.275 351.076 111.073C345.449 110.871 339.953 109.325 335.044 106.564C329.817 103.658 325.475 99.3869 322.482 94.2052C319.436 88.8659 317.874 82.8065 317.96 76.6578C317.867 70.6248 319.428 64.6818 322.473 59.4754C325.518 54.269 329.932 49.9987 335.232 47.1292C340.211 44.4723 345.722 42.9687 351.358 42.7292C356.995 42.4898 362.613 43.5206 367.798 45.7456C372.383 47.6639 376.521 50.5119 379.952 54.1104L369.965 66.186C367.926 63.5409 365.373 61.3371 362.46 59.7079V59.7079Z" fill="black"/>
<path d="M431.172 58.5447C427.955 57.3689 424.576 56.7006 421.154 56.5636C419.393 56.47 417.641 56.8731 416.098 57.7271C415.513 58.0872 415.035 58.5983 414.714 59.2069C414.394 59.8155 414.243 60.4991 414.277 61.1863C414.264 61.8695 414.401 62.5473 414.678 63.172C414.954 63.7968 415.364 64.3533 415.878 64.8027C417.036 65.8323 418.379 66.6326 419.835 67.1612C421.405 67.7587 423.729 68.5448 426.807 69.4882C430.669 70.5558 434.457 71.8795 438.144 73.4506C441.175 74.7983 443.82 76.8849 445.838 79.5198C448.065 82.636 449.172 86.416 448.978 90.2432C449.093 94.2788 447.867 98.2383 445.492 101.501C443.078 104.692 439.812 107.134 436.071 108.545C431.755 110.166 427.176 110.965 422.567 110.904C416.989 110.879 411.455 109.901 406.206 108.011C401.079 106.267 396.311 103.603 392.137 100.149L398.826 86.6583C402.328 89.7246 406.319 92.1801 410.634 93.9225C414.453 95.6428 418.57 96.604 422.756 96.7527C424.869 96.8649 426.971 96.3742 428.817 95.3376C429.526 94.9096 430.107 94.2984 430.5 93.568C430.892 92.8377 431.081 92.0152 431.046 91.1866C431.059 90.4743 430.917 89.7678 430.63 89.1161C430.342 88.4644 429.916 87.8833 429.382 87.413C428.175 86.338 426.765 85.5148 425.237 84.9916C423.572 84.3941 421.248 83.7023 418.234 82.8847C414.413 81.8642 410.667 80.5824 407.022 79.0481C404.05 77.7483 401.441 75.7403 399.422 73.199C397.197 70.2014 396.086 66.5201 396.282 62.7901C396.174 58.9637 397.273 55.2005 399.422 52.0353C401.754 48.8198 404.959 46.3422 408.655 44.8968C413.083 43.1554 417.812 42.311 422.567 42.4125C427.35 42.4065 432.108 43.0842 436.699 44.4251C441.022 45.6375 445.148 47.4699 448.947 49.8654L442.446 63.6391C438.88 61.5439 435.101 59.8361 431.172 58.5447V58.5447Z" fill="black"/>
</svg>
